<?xml version="1.0" encoding="UTF-8"?>
<!-- Generated by Pixelmator Pro 3.7 -->
<svg width="610" height="63" viewBox="0 0 610 63" xmlns="http://www.w3.org/2000/svg">
    <path id="STERILEDREAMS" fill="black" fill-rule="evenodd" stroke="none" d="M 588.475098 63 C 585.532471 63 582.736572 62.643311 580.086914 61.93042 C 577.437012 61.217041 575.097412 60.083496 573.068115 58.529419 C 571.039307 56.975098 569.442627 54.992188 568.278076 52.580322 C 567.113037 50.168335 566.531006 47.269775 566.531006 43.884277 C 566.531006 43.580566 566.540771 43.267334 566.559814 42.944946 C 566.578857 42.622559 566.593994 42.366211 566.604492 42.175781 L 577.47998 42.175781 C 577.470215 42.319946 577.455566 42.541748 577.435791 42.840942 C 577.41626 43.140259 577.406738 43.401611 577.406738 43.625244 C 577.406738 45.538208 577.845459 47.141357 578.723389 48.433838 C 579.601318 49.726685 580.866455 50.69751 582.518555 51.346436 C 584.171143 51.995361 586.107666 52.319824 588.328125 52.319824 C 589.720947 52.319824 590.978271 52.224121 592.100098 52.033203 C 593.22168 51.841797 594.204102 51.556641 595.046631 51.17749 C 595.889404 50.798218 596.596924 50.333496 597.169189 49.783447 C 597.741455 49.233276 598.165039 48.603027 598.439941 47.89209 C 598.714844 47.181274 598.852295 46.395508 598.852295 45.534424 C 598.852295 43.948486 598.416504 42.645508 597.544678 41.625244 C 596.672852 40.604858 595.497803 39.742676 594.019287 39.038086 C 592.540527 38.33374 590.871582 37.693848 589.011475 37.11792 C 587.151611 36.541748 585.237305 35.938477 583.268555 35.307495 C 581.300049 34.676514 579.385742 33.90625 577.525391 32.996338 C 575.665283 32.086426 573.995605 30.971436 572.517334 29.651611 C 571.038574 28.331299 569.86377 26.668213 568.992432 24.661987 C 568.121094 22.655762 567.685303 20.244385 567.685303 17.427734 C 567.685303 14.435791 568.211426 11.837158 569.263916 9.631836 C 570.316406 7.42627 571.793457 5.612793 573.695068 4.191162 C 575.59668 2.769775 577.802002 1.71582 580.310791 1.029297 C 582.81958 0.342773 585.530029 0 588.443115 0 C 591.212402 0 593.817627 0.346436 596.257813 1.039063 C 598.69873 1.731934 600.852295 2.812012 602.71875 4.279785 C 604.585205 5.747803 606.049072 7.605957 607.110352 9.854736 C 608.171387 12.10376 608.70752 14.784668 608.718262 17.897461 L 608.718262 18.96167 L 597.98877 18.96167 L 597.98877 18.191162 C 597.98877 16.618164 597.605225 15.266113 596.838379 14.134766 C 596.071533 13.003906 594.97998 12.119873 593.564209 11.482422 C 592.148438 10.844727 590.464844 10.526367 588.513184 10.526367 C 586.468018 10.526367 584.722656 10.76123 583.276855 11.231445 C 581.831299 11.701416 580.729004 12.385742 579.970947 13.283936 C 579.212402 14.182617 578.833252 15.26416 578.833252 16.528564 C 578.833252 17.929688 579.268799 19.100952 580.140137 20.041748 C 581.011475 20.982422 582.186523 21.781738 583.664795 22.439575 C 585.143555 23.097046 586.812744 23.702393 588.672607 24.255371 C 590.532471 24.808228 592.447021 25.405029 594.416016 26.046143 C 596.38501 26.687256 598.299561 27.444824 600.159424 28.318604 C 602.019043 29.192383 603.688477 30.294434 605.166992 31.624512 C 606.645508 32.95459 607.820801 34.595215 608.692383 36.546143 C 609.564209 38.49707 610 40.845215 610 43.590576 C 610 48.246338 609.070557 52.001831 607.211182 54.857666 C 605.352295 57.713135 602.801758 59.78418 599.55957 61.070557 C 596.317627 62.356934 592.623047 63 588.475098 63 Z M 506.929443 61.935791 L 506.929443 1.063965 L 523.644287 1.063965 L 530.864014 32.239746 C 531.136475 33.33252 531.427979 34.650146 531.738281 36.192261 C 532.048096 37.734375 532.354004 39.262329 532.655762 40.776489 C 532.957275 42.290527 533.202881 43.633545 533.39209 44.805786 L 533.97998 44.805786 C 534.110107 43.828491 534.291992 42.63501 534.524902 41.225342 C 534.758301 39.815674 535.022949 38.31543 535.319336 36.724121 C 535.615723 35.133057 535.929932 33.615234 536.262207 32.170532 L 543.481934 1.063965 L 559.905762 1.063965 L 559.905762 61.935791 L 549.055908 61.935791 L 549.055908 33.072632 C 549.055908 30.430542 549.077637 27.772461 549.121338 25.097656 C 549.164795 22.422974 549.218018 20.078247 549.280762 18.06311 C 549.34375 16.048096 549.375244 14.741211 549.375244 14.142578 L 548.787109 14.142578 C 548.678467 14.816162 548.441406 16.02002 548.076172 17.754639 C 547.710938 19.489502 547.323486 21.337036 546.914307 23.297119 C 546.505127 25.257324 546.134277 26.944092 545.802246 28.357422 L 537.879395 61.935791 L 528.3396 61.935791 L 520.400879 28.426514 C 520.117432 27.19812 519.797607 25.731201 519.440674 24.026123 C 519.08374 22.320801 518.734619 20.577515 518.393799 18.796021 C 518.05249 17.014648 517.745605 15.469971 517.473145 14.161865 L 516.88501 14.161865 C 516.934082 15.732422 516.983154 17.62915 517.031982 19.852539 C 517.081055 22.075928 517.127441 24.348145 517.171143 26.669067 C 517.2146 28.989746 517.236572 31.12439 517.236572 33.072632 L 517.236572 61.935791 Z M 450.809326 61.935791 L 470.179199 1.063965 L 483.720947 1.063965 L 503.148438 61.935791 L 491.297852 61.935791 L 487.670654 49.93396 L 465.756348 49.93396 L 462.12915 61.935791 Z M 468.849365 39.331299 L 484.534912 39.331299 L 480.038574 24.301758 C 479.842529 23.68457 479.612305 22.908325 479.348145 21.972534 C 479.083984 21.036865 478.810547 20.019043 478.5271 18.919434 C 478.243652 17.819824 477.960449 16.711426 477.677002 15.593994 C 477.393799 14.476807 477.13501 13.481445 476.900879 12.607422 L 476.484863 12.607422 C 476.212158 13.764648 475.878418 15.092773 475.483398 16.59082 C 475.088135 18.089111 474.699707 19.527832 474.318359 20.906982 C 473.936523 22.286011 473.612549 23.417725 473.347168 24.301758 Z M 407.973145 61.935791 L 407.973145 1.063965 L 448.258545 1.063965 L 448.258545 11.949463 L 418.983154 11.949463 L 418.983154 25.508545 L 444.864502 25.508545 L 444.864502 36.258057 L 418.983154 36.258057 L 418.983154 51.05188 L 448.71582 51.05188 L 448.71582 61.935791 Z M 356.450928 61.935791 L 356.450928 1.063965 L 384.105469 1.063965 C 387.840576 1.063965 390.941162 1.864502 393.407715 3.466064 C 395.874023 5.067139 397.725098 7.299316 398.960938 10.163086 C 400.196777 13.026611 400.814697 16.334961 400.814697 20.088135 C 400.814697 24.036133 400.074219 27.532349 398.593262 30.577148 C 397.112305 33.621826 394.977295 35.94458 392.187988 37.545166 L 402.514404 61.935791 L 390.382324 61.935791 L 381.455811 39.785767 L 367.460938 39.785767 L 367.460938 61.935791 Z M 367.460938 29.271729 L 382.651611 29.271729 C 384.846191 29.271729 386.556885 28.469238 387.784424 26.86377 C 389.011963 25.258057 389.625488 23.057373 389.625488 20.261353 C 389.625488 18.4646 389.352539 16.943115 388.807129 15.696533 C 388.26123 14.449707 387.473145 13.487793 386.441895 12.810059 C 385.4104 12.132813 384.146973 11.793945 382.651611 11.793945 L 367.460938 11.793945 Z M 304.343994 61.935791 L 304.343994 1.063965 L 324.926025 1.063965 C 330.171631 1.063965 334.639648 2.157715 338.330078 4.345215 C 342.02002 6.532471 344.853516 9.861084 346.829834 14.331055 C 348.806152 18.801025 349.794434 24.523804 349.794434 31.5 C 349.794434 38.416748 348.806152 44.125 346.829834 48.62439 C 344.853516 53.124023 342.02002 56.467285 338.330078 58.654663 C 334.639648 60.842041 330.171631 61.935791 324.926025 61.935791 Z M 315.354004 51.05188 L 324.862793 51.05188 C 327.087158 51.05188 329.049805 50.663818 330.750977 49.887329 C 332.45166 49.111084 333.872314 47.964478 335.012451 46.447754 C 336.152588 44.930908 337.014404 43.032715 337.598389 40.75293 C 338.182129 38.473145 338.474121 35.835815 338.474121 32.841064 L 338.474121 30.227783 C 338.474121 27.187012 338.182129 24.526733 337.598389 22.246948 C 337.014404 19.967041 336.152588 18.068848 335.012451 16.552246 C 333.872314 15.035156 332.45166 13.888672 330.750977 13.112793 C 329.049805 12.337402 327.087158 11.949463 324.862793 11.949463 L 315.354004 11.949463 Z M 256.401855 61.935791 L 256.401855 1.063965 L 296.687012 1.063965 L 296.687012 11.949463 L 267.411865 11.949463 L 267.411865 25.508545 L 293.293213 25.508545 L 293.293213 36.258057 L 267.411865 36.258057 L 267.411865 51.05188 L 297.144043 51.05188 L 297.144043 61.935791 Z M 215.109619 61.935791 L 215.109619 1.063965 L 226.119385 1.063965 L 226.119385 50.699951 L 251.550537 50.699951 L 251.550537 61.935791 Z M 195.195557 61.935791 L 195.195557 1.063965 L 206.205078 1.063965 L 206.205078 61.935791 Z M 143.721436 61.935791 L 143.721436 1.063965 L 171.375977 1.063965 C 175.111084 1.063965 178.21167 1.864502 180.677979 3.466064 C 183.144287 5.067139 184.995361 7.299316 186.231201 10.163086 C 187.467041 13.026611 188.085205 16.334961 188.085205 20.088135 C 188.085205 24.036133 187.344482 27.532349 185.86377 30.577148 C 184.382813 33.621826 182.247803 35.94458 179.458252 37.545166 L 189.784912 61.935791 L 177.652832 61.935791 L 168.726318 39.785767 L 154.731201 39.785767 L 154.731201 61.935791 Z M 154.731201 29.271729 L 169.922363 29.271729 C 172.116211 29.271729 173.827393 28.469238 175.054688 26.86377 C 176.281982 25.258057 176.895996 23.057373 176.895996 20.261353 C 176.895996 18.4646 176.623047 16.943115 176.077637 15.696533 C 175.531982 14.449707 174.743652 13.487793 173.712158 12.810059 C 172.680664 12.132813 171.417236 11.793945 169.922363 11.793945 L 154.731201 11.793945 Z M 95.779053 61.935791 L 95.779053 1.063965 L 136.064209 1.063965 L 136.064209 11.949463 L 106.789063 11.949463 L 106.789063 25.508545 L 132.67041 25.508545 L 132.67041 36.258057 L 106.789063 36.258057 L 106.789063 51.05188 L 136.52124 51.05188 L 136.52124 61.935791 Z M 63.25061 61.935791 L 63.25061 12.230469 L 47.040039 12.230469 L 47.040039 1.063965 L 90.511475 1.063965 L 90.511475 12.230469 L 74.260742 12.230469 L 74.260742 61.935791 Z M 22.751709 63 C 19.80896 63 17.012817 62.643311 14.363037 61.93042 C 11.713379 61.217041 9.374023 60.083496 7.344727 58.529419 C 5.315796 56.975098 3.718872 54.992188 2.554199 52.580322 C 1.389648 50.168335 0.807373 47.269775 0.807373 43.884277 C 0.807373 43.580566 0.816895 43.267334 0.836182 42.944946 C 0.855225 42.622559 0.870239 42.366211 0.880737 42.175781 L 11.75647 42.175781 C 11.74646 42.319946 11.731934 42.541748 11.712158 42.840942 C 11.692871 43.140259 11.682861 43.401611 11.682861 43.625244 C 11.682861 45.538208 12.121948 47.141357 12.999878 48.433838 C 13.877808 49.726685 15.142822 50.69751 16.795288 51.346436 C 18.44751 51.995361 20.383911 52.319824 22.604736 52.319824 C 23.997314 52.319824 25.254761 52.224121 26.376343 52.033203 C 27.498291 51.841797 28.480469 51.556641 29.32312 51.17749 C 30.165649 50.798218 30.873169 50.333496 31.445435 49.783447 C 32.0177 49.233276 32.441284 48.603027 32.716187 47.89209 C 32.991089 47.181274 33.128784 46.395508 33.128784 45.534424 C 33.128784 43.948486 32.692871 42.645508 31.820923 41.625244 C 30.949219 40.604858 29.77417 39.742676 28.29541 39.038086 C 26.817139 38.33374 25.147949 37.693848 23.288086 37.11792 C 21.427856 36.541748 19.51355 35.938477 17.545288 35.307495 C 15.57666 34.676514 13.662109 33.90625 11.802002 32.996338 C 9.941528 32.086426 8.272217 30.971436 6.793701 29.651611 C 5.315063 28.331299 4.140137 26.668213 3.268677 24.661987 C 2.397339 22.655762 1.96167 20.244385 1.96167 17.427734 C 1.96167 14.435791 2.487915 11.837158 3.540039 9.631836 C 4.592773 7.42627 6.069824 5.612793 7.971558 4.191162 C 9.873169 2.769775 12.078369 1.71582 14.587036 1.029297 C 17.095703 0.342773 19.806641 0 22.71936 0 C 25.488892 0 28.093872 0.346436 30.534668 1.039063 C 32.975464 1.731934 35.128662 2.812012 36.995483 4.279785 C 38.861694 5.747803 40.325439 7.605957 41.386719 9.854736 C 42.447876 12.10376 42.983887 14.784668 42.994873 17.897461 L 42.994873 18.96167 L 32.265015 18.96167 L 32.265015 18.191162 C 32.265015 16.618164 31.881592 15.266113 31.114746 14.134766 C 30.3479 13.003906 29.256714 12.119873 27.840576 11.482422 C 26.424927 10.844727 24.741089 10.526367 22.789429 10.526367 C 20.744141 10.526367 18.998779 10.76123 17.553345 11.231445 C 16.107666 11.701416 15.005371 12.385742 14.24707 13.283936 C 13.488647 14.182617 13.109375 15.26416 13.109375 16.528564 C 13.109375 17.929688 13.544922 19.100952 14.416382 20.041748 C 15.28772 20.982422 16.462891 21.781738 17.941406 22.439575 C 19.419922 23.097046 21.089111 23.702393 22.948975 24.255371 C 24.80896 24.808228 26.723511 25.405029 28.692261 26.046143 C 30.661377 26.687256 32.575684 27.444824 34.435547 28.318604 C 36.295532 29.192383 37.964722 30.294434 39.443481 31.624512 C 40.921753 32.95459 42.097168 34.595215 42.968872 36.546143 C 43.840454 38.49707 44.276367 40.845215 44.276367 43.590576 C 44.276367 48.246338 43.346802 52.001831 41.487793 54.857666 C 39.62854 57.713135 37.078369 59.78418 33.835938 61.070557 C 30.593994 62.356934 26.899536 63 22.751709 63 Z"/>
</svg>
